<svg width="1366" height="919" viewBox="0 0 1366 919" fill="none" xmlns="http://www.w3.org/2000/svg">
<rect width="1366" height="909.069" fill="#F7FAFF"/>
<path d="M981.539 613H1373.5C1393.1 613 1409 597.106 1409 577.5C1409 557.894 1393.1 542 1373.5 542H981.539C961.933 542 946.039 557.894 946.039 577.5C946.039 597.106 961.933 613 981.539 613Z" fill="#F1F5F7"/>
<path d="M1026.79 603.715H1014.57V725.882H1026.79V603.715Z" fill="#F0F4F7"/>
<path d="M1339.75 603.715H1327.53V725.882H1339.75V603.715Z" fill="#F0F4F7"/>
<path d="M1075.37 339.259H731.141V514.605H1075.37V339.259Z" fill="#F0F4F7"/>
<path d="M1381.14 333.868H1288.08V509.215H1381.14V333.868Z" fill="#F0F4F7"/>
<rect x="947.086" y="383.095" width="80.8462" height="32.6978" fill="#DDE6ED"/>
<path d="M1037.99 407.886C1045.14 407.886 1050.93 402.095 1050.93 394.951C1050.93 387.807 1045.14 382.016 1037.99 382.016C1030.85 382.016 1025.06 387.807 1025.06 394.951C1025.06 402.095 1030.85 407.886 1037.99 407.886Z" fill="white"/>
<path d="M1033.94 301.264L1419.23 -40L1718 139.838L1050 340.527" fill="#FFF2CD"/>
<path d="M1186.97 496.129L1094.89 476.726V349.086L1186.97 335.583V496.129Z" fill="#A6F1D8"/>
<path d="M1106.18 288.939L1100.21 316.139L1106.73 316.42L1107.36 332.136L1130.1 330.501L1132.2 342.359C1132.2 342.359 1137.37 353.914 1150.91 353.188C1161.78 352.606 1167.68 338.223 1167.68 338.223L1160.53 286.309C1158.96 274.904 1148.66 266.78 1137.2 267.915L1093.38 272.26C1093.39 272.26 1091.54 284.821 1106.18 288.939Z" fill="#FFC472"/>
<path d="M1106.18 288.938C1091.18 286.405 1093.39 272.262 1093.39 272.262L1137.21 267.918C1148.66 266.782 1158.97 274.907 1160.54 286.311L1163.7 309.275C1157.91 309.286 1152.81 305.52 1151.08 300.001C1149.3 294.356 1146.87 287.989 1144.63 286.674C1137.4 282.438 1113.1 290.106 1106.18 288.938Z" fill="#3C4852"/>
<path d="M1135.72 281.059L1138.62 294.695C1138.62 294.695 1132.49 295.302 1129.61 291.256C1126.74 287.21 1126.13 281.084 1126.13 281.084L1135.72 281.059Z" fill="#3C4852"/>
<path d="M1119.8 304.918C1121.68 304.918 1123.21 303.393 1123.21 301.511C1123.21 299.63 1121.68 298.105 1119.8 298.105C1117.92 298.105 1116.39 299.63 1116.39 301.511C1116.39 303.393 1117.92 304.918 1119.8 304.918Z" fill="#3C4852"/>
<path d="M1094.89 349.086L1042.1 378.554L1042.71 339.266L1029.83 321.466L1008.95 421.525L1094.89 401.493V349.086Z" fill="#08BD80"/>
<path d="M1187.11 394.951L1205.08 428.008L1197.17 430.164L1198.97 442.74L1226.63 455.316L1248.55 452.801L1205.08 367.284L1187.11 335.664" fill="#08BD80"/>
<path d="M1204 198H1194V730H1204V198Z" fill="#FFCBCB"/>
<path d="M1380 191H-80V202H1380V191Z" fill="url(#paint0_linear)"/>
<path d="M1144.53 304.405C1145.82 304.405 1146.87 303.359 1146.87 302.069C1146.87 300.779 1145.82 299.733 1144.53 299.733C1143.24 299.733 1142.2 300.779 1142.2 302.069C1142.2 303.359 1143.24 304.405 1144.53 304.405Z" fill="white"/>
<path d="M1143.27 302.608L1140.04 309.076L1141.84 309.795L1145.07 302.608" fill="white"/>
<path d="M1205.79 428.729L1164.83 434.118L1166.63 457.115L1226.63 455.318L1237.77 438.43" fill="#08BD80"/>
<path d="M1158.73 429.807H1164.48L1168.07 463.942H1163.04L1158.73 429.807Z" fill="#08BD80"/>
<path d="M1123.15 429.807H1117.4L1113.81 463.942H1118.84L1123.15 429.807Z" fill="#08BD80"/>
<path d="M1094.8 481.361L1144.39 492.5L1168.1 730.008H1150.49L1094.8 481.361Z" fill="#6AA4F5"/>
<path d="M1137.41 490.862L1187 502.001L1120.63 611.26L1132.12 730H1112L1083.98 600.84L1137.41 490.862Z" fill="#94BFFF"/>
<path d="M451.539 613H843.498C863.104 613 878.998 597.106 878.998 577.5C878.998 557.894 863.104 542 843.498 542H451.539C431.933 542 416.039 557.894 416.039 577.5C416.039 597.106 431.933 613 451.539 613Z" fill="#F1F5F7"/>
<path d="M496.787 603.715H484.57V725.882H496.787V603.715Z" fill="#F0F4F7"/>
<path d="M809.748 603.715H797.531V725.882H809.748V603.715Z" fill="#F0F4F7"/>
<path d="M790.426 190.86V212.779H798.331V190.86" fill="#FEE2E2"/>
<path d="M1161.24 190.86V212.779H1169.5V190.86" fill="#FFC9C9"/>
<path d="M424.641 195.531V213.45H432.905V195.531" fill="#FEF9F9"/>
<path d="M687.303 339.259H343.078V514.605H687.303V339.259Z" fill="#F0F4F7"/>
<rect opacity="0.5" x="533.875" y="453.521" width="153.069" height="32.6978" fill="#DDE6ED"/>
<rect opacity="0.5" x="731.141" y="431.243" width="153.069" height="32.6978" fill="#DDE6ED"/>
<rect x="611.125" y="394.234" width="39.1655" height="32.6978" fill="#DDE6ED"/>
<rect x="1301.02" y="410.402" width="22.6369" height="32.6978" fill="#DDE6ED"/>
<rect x="394.816" y="380.939" width="80.8462" height="32.6978" fill="white"/>
<rect x="1316.11" y="456.396" width="65.0362" height="32.6978" fill="white"/>
<rect x="957.148" y="455.317" width="80.8462" height="32.6978" fill="white"/>
<rect opacity="0.5" x="1304.61" y="352.553" width="61.8024" height="32.6978" fill="white"/>
<path d="M1050 341.5C1056.67 344 1070.2 351.4 1071 361C1072 373 1074.5 397.5 1090 406C1092.19 407.202 1105.46 420 1121.5 392.5C1128.5 380.5 1128 377 1136 355C1142.12 338.175 1137 316 1141.5 308.5" stroke="white"/>
<path d="M1035.4 299.962L1029.06 302.752L1046.8 343.029L1053.14 340.239L1035.4 299.962Z" fill="#EB5757"/>
<path d="M1029.5 322.5C1031.34 314.519 1039.48 316.835 1039.48 316.835C1039.48 316.835 1047.02 320.371 1046.4 328.966C1046.4 328.966 1042.59 335.983 1042.65 345.365" fill="#FFC472"/>
<path d="M0 0H1366V919H0V0Z" fill="url(#paint1_linear)"/>
<defs>
<linearGradient id="paint0_linear" x1="291" y1="197.001" x2="1295.5" y2="197.005" gradientUnits="userSpaceOnUse">
<stop stop-color="#FFC8C8" stop-opacity="0.0729167"/>
<stop offset="1" stop-color="#FFC8C8"/>
</linearGradient>
<linearGradient id="paint1_linear" x1="3.10371e-09" y1="459.5" x2="1366" y2="459.878" gradientUnits="userSpaceOnUse">
<stop offset="0.349876" stop-color="#FCFCFC"/>
<stop offset="0.651042" stop-color="#FCFCFC" stop-opacity="0.0660948"/>
<stop offset="1" stop-color="#FCFCFC" stop-opacity="0"/>
</linearGradient>
</defs>
</svg>
