<svg width="360" height="264" viewBox="0 0 360 264" fill="none" xmlns="http://www.w3.org/2000/svg">
<g clip-path="url(#clip0)">
<path d="M244.231 196.436H426.719C435.847 196.436 443.247 189.036 443.247 179.907C443.247 170.779 435.847 163.379 426.719 163.379H244.231C235.103 163.379 227.703 170.779 227.703 179.907C227.703 189.036 235.103 196.436 244.231 196.436Z" fill="#F1F5F7"/>
<path d="M265.297 192.112H259.609V248.991H265.297V192.112Z" fill="#F0F4F7"/>
<path d="M287.912 68.9863H127.648V150.624H287.912V68.9863Z" fill="#F0F4F7"/>
<rect x="228.191" y="89.3975" width="37.6403" height="15.2234" fill="#DDE6ED"/>
<path d="M270.515 100.941C273.841 100.941 276.537 98.2445 276.537 94.9184C276.537 91.5923 273.841 88.896 270.515 88.896C267.189 88.896 264.492 91.5923 264.492 94.9184C264.492 98.2445 267.189 100.941 270.515 100.941Z" fill="white"/>
<path d="M268.629 51.2986L448.011 -107.587L587.113 -23.8582L276.105 69.5784" fill="#FFF2CD"/>
<path d="M339.878 142.022L297.008 132.989V73.5621L339.878 67.2754V142.022Z" fill="#A6F1D8"/>
<path d="M302.261 45.5601L299.482 58.2239L302.52 58.3544L302.813 65.6717L313.398 64.9105L314.376 70.4311C314.376 70.4311 316.782 75.8112 323.087 75.4732C328.147 75.2022 330.894 68.5056 330.894 68.5056L327.569 44.3355C326.838 39.0257 322.041 35.2433 316.707 35.7719L296.304 37.7945C296.305 37.7945 295.444 43.6429 302.261 45.5601Z" fill="#FFC472"/>
<path d="M302.262 45.5604C295.281 44.381 296.307 37.7964 296.307 37.7964L316.709 35.7739C322.043 35.2453 326.841 39.0277 327.572 44.3375L329.042 55.029C326.349 55.034 323.975 53.2808 323.165 50.7112C322.339 48.0831 321.208 45.1187 320.162 44.5064C316.798 42.5341 305.484 46.1041 302.262 45.5604Z" fill="#3C4852"/>
<path d="M316.014 41.8901L317.364 48.2388C317.364 48.2388 314.512 48.5215 313.172 46.6378C311.833 44.7541 311.551 41.9018 311.551 41.9018L316.014 41.8901Z" fill="#3C4852"/>
<path d="M308.605 52.9995C309.481 52.9995 310.191 52.2894 310.191 51.4136C310.191 50.5377 309.481 49.8276 308.605 49.8276C307.73 49.8276 307.02 50.5377 307.02 51.4136C307.02 52.2894 307.73 52.9995 308.605 52.9995Z" fill="#3C4852"/>
<path d="M297.005 73.5632L272.425 87.2827L272.711 68.9912L266.71 60.7036L256.992 107.289L297.005 97.9625V73.5632Z" fill="#08BD80"/>
<path d="M339.941 94.9178L348.306 110.309L344.626 111.312L345.462 117.167L358.343 123.023L368.548 121.852L348.306 82.0365L339.941 67.3149" fill="#08BD80"/>
<path d="M347.804 3.22119H343.148V250.909H347.804V3.22119Z" fill="#FFCBCB"/>
<path d="M429.745 -0.0375977H-250V5.08377H429.745V-0.0375977Z" fill="url(#paint0_linear)"/>
<path d="M320.115 52.7617C320.715 52.7617 321.202 52.2748 321.202 51.6743C321.202 51.0738 320.715 50.5869 320.115 50.5869C319.514 50.5869 319.027 51.0738 319.027 51.6743C319.027 52.2748 319.514 52.7617 320.115 52.7617Z" fill="white"/>
<path d="M319.529 51.9258L318.023 54.937L318.86 55.2716L320.365 51.9258" fill="white"/>
<path d="M348.637 110.644L329.566 113.153L330.403 123.859L358.34 123.023L363.526 115.16" fill="#08BD80"/>
<path d="M326.727 111.145H329.403L331.076 127.038H328.734L326.727 111.145Z" fill="#08BD80"/>
<path d="M310.162 111.145H307.485L305.812 127.038H308.155L310.162 111.145Z" fill="#08BD80"/>
<path d="M296.965 135.146L320.051 140.332L331.092 250.911H322.895L296.965 135.146Z" fill="#6AA4F5"/>
<path d="M316.801 139.572L339.887 144.758L308.989 195.627L314.337 250.91H304.968L291.926 190.776L316.801 139.572Z" fill="#94BFFF"/>
<path d="M-2.52662 196.436H179.961C189.089 196.436 196.489 189.036 196.489 179.908C196.489 170.78 189.089 163.38 179.961 163.38H-2.52663C-11.6548 163.38 -19.0547 170.78 -19.0547 179.908C-19.0547 189.036 -11.6548 196.436 -2.52662 196.436Z" fill="#F1F5F7"/>
<path d="M18.5394 192.112H12.8516V248.991H18.5394V192.112Z" fill="#F0F4F7"/>
<path d="M164.246 192.112H158.559V248.991H164.246V192.112Z" fill="#F0F4F7"/>
<path d="M155.25 -0.103516V10.1012H158.93V-0.103516" fill="#FEE2E2"/>
<path d="M327.895 -0.103516V10.1012H331.742V-0.103516" fill="#FFC9C9"/>
<path d="M107.241 68.9863H-53.0234V150.624H107.241V68.9863Z" fill="#F0F4F7"/>
<rect opacity="0.5" x="35.8086" y="122.185" width="71.2656" height="15.2234" fill="#DDE6ED"/>
<rect opacity="0.5" x="127.648" y="111.813" width="71.2656" height="15.2234" fill="#DDE6ED"/>
<rect x="71.7734" y="94.584" width="18.2346" height="15.2234" fill="#DDE6ED"/>
<rect x="-28.9336" y="88.3931" width="37.6403" height="15.2234" fill="white"/>
<rect x="232.875" y="123.021" width="37.6403" height="15.2234" fill="white"/>
<path d="M386.912 249.048H-250V263.946H386.912V249.048Z" fill="#F0F4F7"/>
<path d="M276.105 70.0301C279.209 71.1941 285.51 74.6394 285.883 79.1089C286.348 84.6959 287.512 96.1025 294.729 100.06C295.749 100.62 301.926 106.578 309.394 93.7747C312.653 88.1877 312.421 86.5582 316.145 76.3154C318.994 68.4822 316.611 58.1579 318.706 54.666" stroke="white" stroke-width="0.465579"/>
<path d="M269.306 50.6921L266.355 51.9912L274.613 70.7434L277.563 69.4442L269.306 50.6921Z" fill="#EB5757"/>
<path d="M266.559 61.1864C267.417 57.4709 271.206 58.5493 271.206 58.5493C271.206 58.5493 274.714 60.1954 274.428 64.197C274.428 64.197 272.653 67.4642 272.683 71.8321" fill="#FFC472"/>
<path d="M-250 -74.999H386.379V263.699H-250V-74.999Z" fill="url(#paint1_linear)"/>
<g filter="url(#filter0_d)">
<rect x="44" y="31.459" width="174" height="47.027" rx="6" fill="white"/>
</g>
<rect x="109.84" y="40.8643" width="94.054" height="14.1081" fill="#F6F8FA"/>
<rect x="109.84" y="62.0259" width="39.3851" height="7.05405" fill="#EBEDEE"/>
<rect x="58.1094" y="45.5664" width="37.6216" height="18.8108" rx="2.35135" fill="#EB5757"/>
<path d="M67.7441 58.2681H71.9765V57.2523H68.8821V51.5902H67.7441V58.2681ZM73.1732 58.2681H74.3113V51.5902H73.1732V58.2681ZM80.2246 51.5902L78.447 56.6409H78.4376L76.6787 51.5902H75.456L77.9485 58.2681H78.9549L81.4473 51.5902H80.2246ZM82.4951 58.2681H86.8968V57.2523H83.6332V55.4653H86.1068V54.4495H83.6332V52.606H86.6993V51.5902H82.4951V58.2681Z" fill="white"/>
<g filter="url(#filter1_d)">
<rect x="44" y="87.8906" width="174" height="47.027" rx="6" fill="white"/>
</g>
<rect x="109.84" y="97.2969" width="94.054" height="14.1081" fill="#F6F8FA"/>
<rect x="109.84" y="118.459" width="39.3851" height="7.05405" fill="#EBEDEE"/>
<path d="M91.0287 111.405C91.0287 119.197 84.7123 125.513 76.9206 125.513C69.1289 125.513 62.8125 119.197 62.8125 111.405C62.8125 103.613 69.1289 97.2969 76.9206 97.2969C84.7123 97.2969 91.0287 103.613 91.0287 111.405Z" fill="#70AAFC"/>
<mask id="mask0" mask-type="alpha" maskUnits="userSpaceOnUse" x="62" y="97" width="30" height="29">
<path d="M91.0287 111.405C91.0287 119.197 84.7123 125.513 76.9206 125.513C69.1289 125.513 62.8125 119.197 62.8125 111.405C62.8125 103.613 69.1289 97.2969 76.9206 97.2969C84.7123 97.2969 91.0287 103.613 91.0287 111.405Z" fill="#F0F5F6"/>
</mask>
<g mask="url(#mask0)">
<g opacity="0.8">
<path d="M82.3761 106.391C82.3761 109.188 80.0909 111.456 77.272 111.456C74.4531 111.456 72.168 109.188 72.168 106.391C72.168 103.594 74.4531 101.327 77.272 101.327C80.0909 101.327 82.3761 103.594 82.3761 106.391Z" fill="#2C65F8"/>
<path d="M77.2679 112.72C69.4595 112.72 63.0161 118.52 62.0742 126.015H92.4616C91.5198 118.52 85.0764 112.72 77.2679 112.72Z" fill="#2C65F8"/>
</g>
<path d="M80.4539 120.559C80.5732 121.286 81.2287 121.842 82.0195 121.842C82.8023 121.842 83.4525 121.297 83.5813 120.581C83.5978 120.514 83.6046 120.46 83.6025 120.414C83.6025 120.362 83.5632 120.321 83.5086 120.321H83.4201H80.6337H80.5317C80.4772 120.321 80.4379 120.362 80.4379 120.414C80.4377 120.414 80.4376 120.414 80.4375 120.414C80.4376 120.415 80.4377 120.417 80.4377 120.418C80.4363 120.458 80.4415 120.504 80.4539 120.559L80.4539 120.559Z" fill="#70AAFC"/>
<path d="M82.7965 122.772C82.7368 122.409 82.4091 122.131 82.0137 122.131C81.6223 122.131 81.2972 122.403 81.2328 122.761C81.2246 122.795 81.2211 122.822 81.2222 122.845C81.2222 122.871 81.2419 122.892 81.2691 122.892H81.3134H82.7066H82.7576C82.7848 122.892 82.8045 122.871 82.8045 122.845C82.8046 122.845 82.8046 122.845 82.8047 122.845C82.8047 122.844 82.8046 122.844 82.8046 122.843C82.8053 122.823 82.8027 122.8 82.7965 122.772Z" fill="#70AAFC"/>
</g>
<g filter="url(#filter2_d)">
<rect x="44" y="144.322" width="174" height="47.027" rx="6" fill="white"/>
</g>
<rect x="109.84" y="153.729" width="94.054" height="14.1081" fill="#F6F8FA"/>
<rect x="109.84" y="174.891" width="39.3851" height="7.05405" fill="#EBEDEE"/>
<rect x="62.8125" y="153.729" width="28.2162" height="28.2162" rx="4.7027" fill="#FFC370"/>
<path fill-rule="evenodd" clip-rule="evenodd" d="M84.369 163.931C84.4282 163.99 84.4756 164.061 84.5087 164.138C84.5435 164.216 84.5614 164.302 84.5611 164.388V175.596C84.5589 175.767 84.4891 175.93 84.3668 176.05C84.2444 176.171 84.0791 176.24 83.9061 176.242H69.9324C69.7593 176.24 69.594 176.171 69.4717 176.05C69.3493 175.93 69.2796 175.767 69.2773 175.596V160.077C69.2796 159.906 69.3493 159.743 69.4717 159.622C69.594 159.501 69.7593 159.432 69.9324 159.43H79.5393C79.6265 159.43 79.7127 159.448 79.7926 159.482C79.8705 159.515 79.9416 159.561 80.0022 159.62L84.369 163.931ZM71.5463 163.707C71.5463 162.754 72.3183 161.982 73.2706 161.982H73.3154C74.2677 161.982 75.0397 162.754 75.0397 163.707C75.0397 164.659 74.2677 165.431 73.3154 165.431H73.2706C72.3183 165.431 71.5463 164.659 71.5463 163.707ZM79.2227 161.617L82.7161 165.065H79.2227V161.617ZM80.0309 168.484H72.1706C71.9969 168.484 71.8303 168.552 71.7075 168.673C71.5846 168.794 71.5156 168.959 71.5156 169.13C71.5156 169.302 71.5846 169.466 71.7075 169.588C71.8303 169.709 71.9969 169.777 72.1706 169.777H80.0309C80.2046 169.777 80.3712 169.709 80.494 169.588C80.6169 169.466 80.6859 169.302 80.6859 169.13C80.6859 168.959 80.6169 168.794 80.494 168.673C80.3712 168.552 80.2046 168.484 80.0309 168.484ZM72.1706 171.93H77.4108C77.5845 171.93 77.7511 171.998 77.874 172.12C77.9968 172.241 78.0658 172.405 78.0658 172.577C78.0658 172.748 77.9968 172.913 77.874 173.034C77.7511 173.155 77.5845 173.223 77.4108 173.223H72.1706C71.9969 173.223 71.8303 173.155 71.7075 173.034C71.5846 172.913 71.5156 172.748 71.5156 172.577C71.5156 172.405 71.5846 172.241 71.7075 172.12C71.8303 171.998 71.9969 171.93 72.1706 171.93Z" fill="white"/>
<rect y="-65" width="360" height="348" fill="url(#paint2_linear)"/>
</g>
<defs>
<filter id="filter0_d" x="20" y="19.459" width="222" height="95.027" filterUnits="userSpaceOnUse" color-interpolation-filters="sRGB">
<feFlood flood-opacity="0" result="BackgroundImageFix"/>
<feColorMatrix in="SourceAlpha" type="matrix" values="0 0 0 0 0 0 0 0 0 0 0 0 0 0 0 0 0 0 127 0"/>
<feOffset dy="12"/>
<feGaussianBlur stdDeviation="12"/>
<feColorMatrix type="matrix" values="0 0 0 0 0.866667 0 0 0 0 0.901961 0 0 0 0 0.929412 0 0 0 0.4 0"/>
<feBlend mode="normal" in2="BackgroundImageFix" result="effect1_dropShadow"/>
<feBlend mode="normal" in="SourceGraphic" in2="effect1_dropShadow" result="shape"/>
</filter>
<filter id="filter1_d" x="20" y="75.8906" width="222" height="95.027" filterUnits="userSpaceOnUse" color-interpolation-filters="sRGB">
<feFlood flood-opacity="0" result="BackgroundImageFix"/>
<feColorMatrix in="SourceAlpha" type="matrix" values="0 0 0 0 0 0 0 0 0 0 0 0 0 0 0 0 0 0 127 0"/>
<feOffset dy="12"/>
<feGaussianBlur stdDeviation="12"/>
<feColorMatrix type="matrix" values="0 0 0 0 0.866667 0 0 0 0 0.901961 0 0 0 0 0.929412 0 0 0 0.4 0"/>
<feBlend mode="normal" in2="BackgroundImageFix" result="effect1_dropShadow"/>
<feBlend mode="normal" in="SourceGraphic" in2="effect1_dropShadow" result="shape"/>
</filter>
<filter id="filter2_d" x="20" y="132.322" width="222" height="95.027" filterUnits="userSpaceOnUse" color-interpolation-filters="sRGB">
<feFlood flood-opacity="0" result="BackgroundImageFix"/>
<feColorMatrix in="SourceAlpha" type="matrix" values="0 0 0 0 0 0 0 0 0 0 0 0 0 0 0 0 0 0 127 0"/>
<feOffset dy="12"/>
<feGaussianBlur stdDeviation="12"/>
<feColorMatrix type="matrix" values="0 0 0 0 0.866667 0 0 0 0 0.901961 0 0 0 0 0.929412 0 0 0 0.4 0"/>
<feBlend mode="normal" in2="BackgroundImageFix" result="effect1_dropShadow"/>
<feBlend mode="normal" in="SourceGraphic" in2="effect1_dropShadow" result="shape"/>
</filter>
<linearGradient id="paint0_linear" x1="-77.2702" y1="2.75649" x2="390.404" y2="2.75839" gradientUnits="userSpaceOnUse">
<stop stop-color="#FFC8C8" stop-opacity="0.0729167"/>
<stop offset="1" stop-color="#FFC8C8"/>
</linearGradient>
<linearGradient id="paint1_linear" x1="-250" y1="94.3498" x2="386.378" y2="94.5721" gradientUnits="userSpaceOnUse">
<stop offset="0.349876" stop-color="#FCFCFC"/>
<stop offset="0.651042" stop-color="#FCFCFC" stop-opacity="0.0660948"/>
<stop offset="1" stop-color="#FCFCFC" stop-opacity="0"/>
</linearGradient>
<linearGradient id="paint2_linear" x1="180" y1="94.5" x2="183.681" y2="282.996" gradientUnits="userSpaceOnUse">
<stop stop-color="white" stop-opacity="0"/>
<stop offset="1" stop-color="#FCFCFC"/>
</linearGradient>
<clipPath id="clip0">
<rect width="360" height="264" fill="white"/>
</clipPath>
</defs>
</svg>
