<svg width="240" height="240" viewBox="0 0 240 240" fill="none" xmlns="http://www.w3.org/2000/svg">
<mask id="mask0" mask-type="alpha" maskUnits="userSpaceOnUse" x="0" y="0" width="240" height="240">
<path d="M0 12C0 5.37259 5.37258 0 12 0H228C234.627 0 240 5.37258 240 12V228C240 234.627 234.627 240 228 240H0V12Z" fill="#C4C4C4"/>
</mask>
<g mask="url(#mask0)">
<path d="M82 106.421L108 159.5L281.5 100.5V-21.5L82 106.421Z" fill="#FFF2CF"/>
<path d="M107.07 157.96C107.144 158.166 119.906 158.417 119.906 158.417L133.57 157.955L133.592 151.622C132.213 151.313 128.046 150.235 122.418 148.389C115.383 146.082 106.111 155.259 107.07 157.96Z" fill="#FFAD3B"/>
<path d="M152.337 139.228L160.062 87.5488L174.096 156.227L117.934 157.227V143.838L152.337 139.228Z" fill="#2D81F7"/>
<path d="M173.66 139.003L207.56 150.057L205.934 160.271L175.327 246.293L181.428 303.388L170.25 311.527L154.352 243.959L173.66 139.003Z" fill="#FFCDCD"/>
<path d="M177.287 161.349L215.017 161.746L204.197 326.194L190.179 326.425L177.287 161.349Z" fill="#FFA1A1"/>
<path d="M205.252 110.998L211.958 136.005L206.645 137.222L214.082 144.848L230.014 155.191L235.017 155.191C235.404 155.191 235.682 154.816 235.57 154.445L218.919 99.2807L215.849 88.1263" fill="#2D81F7"/>
<path d="M161.506 175.426H214.984L215.852 88.0312L160.061 87.5488L161.506 175.426Z" fill="#C6DDFF"/>
<path d="M189.141 74.6326C171.1 80.2008 163.265 95.8787 161.603 103.022C170.595 104.495 191.42 105.386 202.784 97.1657C216.99 86.891 211.692 67.6723 189.141 74.6326Z" fill="#C6DDFF"/>
<path d="M155.434 155.769C155.457 155.828 169.599 155.769 169.599 155.769L184.316 155.326L184.339 148.99C182.839 148.681 178.31 147.602 172.192 145.755C164.545 143.446 154.392 153.066 155.434 155.769Z" fill="#FFAD3B"/>
<path d="M217.208 136.315L177.088 139.562L177.945 155.787L230.013 155.191L225.503 143.479" fill="#2D81F7"/>
<path d="M187.235 85.2588C184.522 85.519 181.773 85.1196 179.144 84.0834C176.515 83.0472 174.058 81.3945 171.914 79.2196C169.769 77.0448 167.979 74.3903 166.645 71.4079C165.311 68.4255 164.46 65.1734 164.14 61.8375C163.82 58.5015 164.037 55.147 164.78 51.9654C165.522 48.7838 166.775 45.8374 168.467 43.2945C170.16 40.7516 172.257 38.662 174.641 37.145C177.025 35.6279 179.648 34.7132 182.361 34.4529L184.798 59.8559L187.235 85.2588Z" fill="#3C4852"/>
<path d="M164.574 39.498H184.168H185.453V62.9446H164.574V39.498Z" fill="#FFAD3B"/>
<path d="M197.641 67.3136V92.8245C197.641 94.308 196.656 95.6112 195.228 96.0159C190.758 97.2836 186.023 97.2836 181.552 96.0159C180.125 95.6112 179.14 94.308 179.14 92.8244V67.3136C179.14 64.7592 181.211 62.6885 183.765 62.6885H193.016C195.57 62.6885 197.641 64.7592 197.641 67.3136Z" fill="#FFAD3B"/>
<path d="M189.774 100.505C183.784 94.5599 189.674 90.5967 194.267 90.5015C198.859 90.4062 198.418 88.215 198.418 88.215C198.418 88.215 208.044 83.928 207.445 88.5008C206.846 93.0737 195.764 106.449 189.774 100.505Z" fill="#C6DDFF"/>
<path d="M185.794 100.129C191.167 94.9902 184.474 89.7522 181.227 89.7522C177.981 89.7522 178.917 87.2172 178.917 87.2172L172.992 87.2172C172.992 87.2172 169.408 85.799 169.945 89.7522C170.482 93.7054 180.422 105.268 185.794 100.129Z" fill="#C6DDFF"/>
<path d="M184.828 96.2207C184.753 100.151 183.742 109.774 180.296 116.83" stroke="white" stroke-width="0.57814" stroke-linecap="round" stroke-linejoin="round"/>
<path d="M190.086 96.2207C189.997 102.071 191.176 116.366 196.606 126.752" stroke="white" stroke-width="0.57814" stroke-linecap="round" stroke-linejoin="round"/>
<path d="M196.182 128.74L195.931 125.976C195.922 125.875 196.039 125.812 196.118 125.876L198.631 127.886C198.703 127.943 198.682 128.057 198.595 128.086L196.334 128.84C196.263 128.863 196.189 128.815 196.182 128.74Z" fill="white"/>
<path d="M178.872 118.487L180.305 116.11C180.358 116.023 180.489 116.042 180.516 116.14L181.352 119.247C181.376 119.336 181.292 119.416 181.205 119.388L178.936 118.657C178.865 118.634 178.834 118.551 178.872 118.487Z" fill="white"/>
<path d="M161.749 40.2949V58.9303L158.04 66.4461L161.749 68.3204L165.759 78.58C165.95 79.0682 166.455 79.3582 166.973 79.2774L191.168 75.5036" fill="#FFAD3B"/>
<path fill-rule="evenodd" clip-rule="evenodd" d="M161.254 36.5916C157.9 39.9454 156.016 44.4942 156.016 49.2373H161.474L162.368 42.5308L162.964 49.2373L173.899 49.2373H191.783C191.783 44.4942 189.899 39.9454 186.545 36.5916C183.191 33.2377 178.643 31.3535 173.899 31.3535C169.156 31.3535 164.608 33.2377 161.254 36.5916Z" fill="#3C4852"/>
<path d="M181.732 74.4129C182.245 79.3694 186.823 83.8986 191.728 83.1003C192.732 82.937 193.699 82.6711 194.606 82.2418C198.13 80.5738 201.242 78.2903 203.765 75.5217C206.287 72.7531 208.171 69.5536 209.308 66.1059C210.444 62.6582 210.813 59.0298 210.391 55.428C209.969 51.8261 208.766 48.3212 206.85 45.1135C204.934 41.9057 202.342 39.0579 199.223 36.7327C196.105 34.4075 192.519 32.6503 188.673 31.5616C184.826 30.4728 180.793 30.0738 176.804 30.3873L180.015 57.8153L181.732 74.4129Z" fill="#3C4852"/>
<circle cx="182.783" cy="60.9736" r="3.91208" fill="#FFAD3B"/>
<path d="M183.391 69.3074C182.652 70.7463 182.267 72.2902 182.257 73.851C182.248 75.4118 182.613 76.959 183.333 78.4041C184.053 79.8492 185.113 81.164 186.453 82.2734C187.793 83.3828 189.386 84.2651 191.143 84.87C192.899 85.4748 194.783 85.7903 196.688 85.7984C198.593 85.8065 200.481 85.5072 202.245 84.9174C204.009 84.3276 205.614 83.459 206.968 82.3611C208.322 81.2632 209.399 79.9575 210.137 78.5186L196.764 73.913L183.391 69.3074Z" fill="#3C4852"/>
<path d="M166.482 32.9117L179.429 52.5901L177.837 31.3677C177.79 30.7452 177.243 30.2816 176.621 30.3382L167.315 31.1842C166.474 31.2606 166.018 32.2062 166.482 32.9117Z" fill="#EB5757"/>
<path d="M165 155.473L111.588 156.599L81.0303 103L75 106.781L106.971 163.034H165V155.473Z" fill="#EB5757"/>
<path d="M95 251H171V163H112.19C102.696 163 95 170.696 95 180.19V251Z" fill="#A9F1D9"/>
<rect width="135.094" height="38.0728" transform="matrix(-4.37114e-08 1 1 4.37114e-08 50 176.905)" fill="#FFEED7"/>
<rect width="135.094" height="17.7325" transform="matrix(-4.37114e-08 1 1 4.37114e-08 70.3398 176.905)" fill="#FFAD3B"/>
<path d="M69.8196 149L50.2617 176.906L88.0737 176.906L69.8196 149Z" fill="#FFAD3B"/>
<path d="M69.8196 149L50.2617 176.906L70.3412 176.906L69.8196 149Z" fill="#FFEED7"/>
<g style="mix-blend-mode:color-burn">
<path d="M69.818 149L64.8633 156.042L74.5119 156.042L69.818 149Z" fill="#3C4852"/>
</g>
<g style="mix-blend-mode:soft-light">
<ellipse cx="70.3424" cy="197.249" rx="11.4752" ry="11.474" transform="rotate(90 70.3424 197.249)" fill="white"/>
</g>
</g>
</svg>
