<svg width="240" height="240" viewBox="0 0 240 240" fill="none" xmlns="http://www.w3.org/2000/svg">
<mask id="mask0" mask-type="alpha" maskUnits="userSpaceOnUse" x="0" y="0" width="240" height="240">
<path d="M0 12C0 5.37259 5.37258 0 12 0H240V228C240 234.627 234.627 240 228 240H12C5.37259 240 0 234.627 0 228V12Z" fill="#C4C4C4"/>
</mask>
<g mask="url(#mask0)">
<path d="M135.03 108.073C135.096 108.047 144.211 118.97 144.211 118.97L153.362 130.62L147.826 135.319C146.584 134.393 142.703 131.706 137.119 128.364C130.139 124.186 131.987 109.268 135.03 108.073Z" fill="#FFAD3B"/>
<path d="M241.5 1L122 100.978L137.957 122L246 100.978L241.5 1Z" fill="#E2EEFF"/>
<path d="M176 181H210.833L212.417 193.313L210.042 303.339L233 366.495L225.083 380L189.854 308.503L176 181Z" fill="#94BFFF"/>
<path d="M205.073 182.477L243.949 182.925L231.431 380.658L217.622 380.946L205.073 182.477Z" fill="#6AA4F5"/>
<path d="M131 137.865L142.22 126.27L159.531 138.865L169.248 93.1982L180.094 122.416L169.248 169.542L131 137.865Z" fill="#FFC677"/>
<path d="M242.93 194.038H175.233L168.875 94H245.938L242.93 194.038Z" fill="#FFEED7"/>
<path d="M181.597 62.092L177 75.7358L181.191 75.9169L181.597 85.9936L196.198 84.9465L197.798 98.0896C197.798 98.0896 200.87 103.959 209.569 103.495C216.551 103.121 220 95.4775 220 95.4775L215.751 56.6098C214.742 49.2963 208.125 44.0887 200.768 44.8169L182.809 44.8169C182.809 44.8169 181.597 54.1237 181.597 62.092Z" fill="#FFAD3B"/>
<path d="M178 38H206C210.971 38 215 42.0294 215 47V57H188C182.477 57 178 52.5228 178 47V38Z" fill="#3C4852"/>
<path d="M215 41C217.209 41 219 42.7909 219 45L219 77L216 77C207.163 77 200 69.8366 200 61L200 41L215 41Z" fill="#3C4852"/>
<circle cx="201.912" cy="64.9121" r="3.91208" fill="#FFAD3B"/>
<path d="M239.189 125.593H202.535V166.734H239.189V125.593Z" fill="#FFA1A1"/>
<path d="M236.196 130.081H199.543V171.223H236.196V130.081Z" fill="#EB5757"/>
<path d="M228.144 163.066C219.242 159.209 202.039 154.81 203.525 158.014C203.735 158.466 204.013 158.848 204.335 159.169C202.075 158.733 199.728 158.669 198.578 159.839C195.983 162.479 196.029 162.554 199.234 167.755L199.258 167.793C202.486 173.031 203.795 172.791 211.936 171.707C220.539 170.562 226.849 170.093 228.928 170.002L228.144 163.066Z" fill="#FFAD3B"/>
<path d="M260.014 152.676L219.648 156.707L220.992 173.909L275.603 172.565L283.935 159.933" fill="#FFC677"/>
<path d="M121.649 99.9998L118 103.205L138.4 126.352L142.049 123.147L121.649 99.9998Z" fill="#2D81F7"/>
<path d="M91.9135 184.841L81 173.909L100.101 138.033L100.101 184.841L91.9135 184.841Z" fill="#C0DBFF"/>
<path d="M108.289 184.841L119.202 173.909L100.102 138.033L100.102 184.841L108.289 184.841Z" fill="#2D81F7"/>
<path d="M100 184L88 184L88 192L100 192L100 184Z" fill="#C0DBFF"/>
<path d="M111 184L100 184L100 192L111 192L111 184Z" fill="#2D81F7"/>
<path d="M100.101 175.278C101.796 175.278 103.171 173.901 103.171 172.203C103.171 170.505 101.796 169.128 100.101 169.128C98.4056 169.128 97.0312 170.505 97.0312 172.203C97.0312 173.901 98.4056 175.278 100.101 175.278Z" fill="#FDF7EA"/>
<path d="M110 192L89 192L89 319L110 319L110 192Z" fill="#C0DBFF"/>
<path d="M156 306L156 210L125 210L125 306L156 306Z" fill="#A6F1D8"/>
<path d="M125 210C125 201.162 131.939 194 140.5 194C149.061 194 156 201.162 156 210" fill="#FFA1A1"/>
<g style="mix-blend-mode:color-burn">
<ellipse cx="140.599" cy="210.147" rx="5.24153" ry="5.2326" transform="rotate(90 140.599 210.147)" fill="#08BD80"/>
</g>
</g>
</svg>
